<svg xmlns="http://www.w3.org/2000/svg" xmlns:xlink="http://www.w3.org/1999/xlink" width="500" zoomAndPan="magnify" viewBox="0 0 375 374.999991" height="500" preserveAspectRatio="xMidYMid meet" version="1.0"><defs><g/><clipPath id="612b138dc4"><path d="M 179 54.390625 L 197 54.390625 L 197 85 L 179 85 Z M 179 54.390625 " clip-rule="nonzero"/></clipPath></defs><rect x="-37.5" width="450" fill="#ffffff" y="-37.499999" height="449.999989" fill-opacity="1"/><rect x="-37.5" width="450" fill="#ffffff" y="-37.499999" height="449.999989" fill-opacity="1"/><path fill="#000000" d="M 238.332031 171.117188 C 238.539062 171.195312 238.652344 171.269531 238.761719 171.273438 C 243.578125 171.3125 248.398438 171.367188 253.214844 171.351562 C 253.570312 171.351562 254.046875 170.925781 254.261719 170.574219 C 256.164062 167.453125 259.832031 165.882812 263.355469 166.738281 C 267.117188 167.648438 269.535156 170.679688 269.421875 174.335938 C 269.300781 178.207031 266.753906 181.222656 262.992188 181.941406 C 259.28125 182.652344 255.535156 180.738281 254.191406 177.277344 C 253.800781 176.273438 253.300781 176.042969 252.335938 176.050781 C 247.636719 176.089844 242.941406 176.089844 238.242188 176.050781 C 237.390625 176.046875 236.964844 176.351562 236.554688 177.085938 C 235.828125 178.386719 234.988281 179.632812 234.085938 180.816406 C 233.578125 181.484375 233.484375 181.871094 234.140625 182.523438 C 238.867188 187.234375 243.566406 191.976562 248.238281 196.746094 C 248.933594 197.457031 249.488281 197.578125 250.433594 197.167969 C 255.691406 194.878906 261.675781 197.699219 262.808594 203.019531 C 263.582031 206.644531 262.644531 209.808594 259.578125 212.054688 C 256.449219 214.347656 253.074219 214.335938 249.753906 212.472656 C 246.453125 210.621094 245.117188 207.652344 245.339844 203.9375 C 245.359375 203.578125 245.347656 203.171875 245.507812 202.867188 C 246.230469 201.488281 245.535156 200.703125 244.5625 199.753906 C 240.191406 195.484375 235.921875 191.113281 231.601562 186.796875 C 230.980469 186.175781 230.277344 185.632812 229.496094 184.949219 C 229.265625 185.480469 229.066406 185.828125 228.960938 186.203125 C 227.765625 190.308594 225.351562 193.582031 222.011719 196.191406 C 221.332031 196.722656 221.074219 197.273438 221.078125 198.121094 C 221.109375 202.527344 221.105469 206.933594 221.070312 211.339844 C 221.066406 212.125 221.269531 212.539062 222.050781 212.871094 C 225.636719 214.390625 227.296875 218.210938 226.117188 222.023438 C 224.953125 225.78125 221.371094 227.890625 217.351562 227.1875 C 213.589844 226.53125 210.902344 223.183594 211.125 219.390625 C 211.300781 216.382812 212.828125 214.257812 215.433594 212.804688 C 215.8125 212.589844 216.273438 212.082031 216.277344 211.710938 C 216.320312 207.910156 216.277344 204.109375 216.25 200.308594 C 216.25 200.195312 216.183594 200.085938 216.089844 199.8125 C 210.976562 201.828125 205.714844 202.128906 200.402344 200.871094 C 195.015625 199.59375 190.683594 196.609375 187.238281 192.160156 C 184.097656 196.515625 180.039062 199.402344 174.988281 200.792969 C 170.003906 202.171875 165.058594 201.777344 160.097656 200.101562 C 160.039062 200.394531 159.953125 200.613281 159.953125 200.835938 C 159.957031 204.390625 159.980469 207.949219 159.96875 211.507812 C 159.96875 212.15625 160.15625 212.480469 160.808594 212.75 C 164.617188 214.324219 166.476562 218.878906 164.914062 222.652344 C 163.324219 226.492188 158.753906 228.363281 154.75 226.8125 C 150.914062 225.324219 148.992188 221.042969 150.394531 217.117188 C 151.121094 215.078125 152.417969 213.527344 154.402344 212.632812 C 155.042969 212.339844 155.324219 212.011719 155.320312 211.285156 C 155.292969 207.082031 155.320312 202.875 155.28125 198.671875 C 155.277344 198.253906 155.066406 197.667969 154.75 197.453125 C 150.417969 194.523438 147.488281 190.597656 146.082031 185.554688 C 146.058594 185.484375 145.992188 185.429688 145.855469 185.242188 C 145.554688 185.492188 145.238281 185.710938 144.964844 185.980469 C 140.03125 190.828125 135.105469 195.6875 130.160156 200.523438 C 129.667969 201.007812 129.546875 201.386719 129.804688 202.085938 C 131.210938 205.902344 129.945312 209.898438 126.683594 212.191406 C 123.503906 214.421875 118.871094 214.246094 115.792969 211.773438 C 112.917969 209.464844 111.894531 205.175781 113.371094 201.625 C 114.828125 198.125 118.628906 195.886719 122.488281 196.359375 C 123.554688 196.492188 124.617188 196.832031 125.628906 197.214844 C 126.246094 197.449219 126.609375 197.449219 127.097656 196.953125 C 131.742188 192.214844 136.402344 187.488281 141.097656 182.804688 C 141.8125 182.09375 141.765625 181.675781 141.160156 180.921875 C 140.101562 179.605469 139.242188 178.132812 138.21875 176.78125 C 137.929688 176.40625 137.363281 176.015625 136.921875 176.011719 C 132.835938 175.972656 128.746094 176.019531 124.65625 176.027344 C 124.050781 176.027344 123.652344 176.09375 123.390625 176.8125 C 121.742188 181.296875 116.851562 183.253906 112.566406 181.203125 C 108.507812 179.261719 106.964844 174.265625 109.226562 170.367188 C 111.515625 166.414062 117.011719 165.242188 120.761719 167.992188 C 121.6875 168.667969 122.355469 169.6875 123.175781 170.515625 C 123.457031 170.804688 123.835938 171.203125 124.175781 171.203125 C 128.21875 171.253906 132.261719 171.234375 136.328125 171.234375 C 136.328125 169.949219 136.195312 168.738281 136.355469 167.570312 C 136.746094 164.722656 135.832031 162.574219 133.910156 160.347656 C 132.007812 158.136719 130.878906 155.246094 129.492188 152.613281 C 129.144531 151.949219 128.910156 151.519531 128.03125 151.523438 C 120.945312 151.5625 113.859375 151.566406 106.773438 151.519531 C 105.660156 151.511719 105.089844 151.882812 104.546875 152.867188 C 102.796875 156.035156 100.035156 157.707031 96.390625 157.578125 C 93.027344 157.460938 90.429688 155.886719 88.875 152.839844 C 86.628906 148.445312 88.609375 142.917969 93.082031 140.976562 C 97.667969 138.984375 103.28125 141.230469 104.996094 145.796875 C 105.273438 146.535156 105.621094 146.757812 106.382812 146.753906 C 113.265625 146.722656 120.152344 146.710938 127.03125 146.761719 C 128.183594 146.769531 128.421875 146.398438 128.4375 145.320312 C 128.578125 133.589844 134.609375 125.511719 144.429688 119.820312 C 144.984375 119.5 145.613281 119.308594 146.253906 119.035156 C 145.796875 117.726562 145.371094 116.398438 144.851562 115.105469 C 144.761719 114.882812 144.28125 114.695312 143.980469 114.695312 C 136.609375 114.691406 129.242188 114.703125 121.871094 114.78125 C 121.503906 114.785156 120.988281 115.359375 120.800781 115.785156 C 118.453125 121.042969 111.136719 122.175781 107.445312 117.789062 C 105.351562 115.304688 104.96875 112.476562 106.261719 109.503906 C 107.542969 106.558594 109.882812 104.976562 113.066406 104.8125 C 116.347656 104.640625 118.890625 106.046875 120.527344 108.886719 C 120.960938 109.640625 121.390625 109.875 122.210938 109.875 C 129.296875 109.855469 136.382812 109.875 143.46875 109.878906 C 143.824219 109.878906 144.183594 109.84375 144.46875 109.824219 C 144.832031 108.261719 145.230469 106.789062 145.472656 105.289062 C 145.527344 104.941406 145.117188 104.441406 144.804688 104.121094 C 139.605469 98.855469 134.386719 93.601562 129.175781 88.34375 C 128.976562 88.144531 128.753906 87.957031 128.582031 87.734375 C 127.402344 86.203125 126.417969 85.4375 124.074219 86.382812 C 119.625 88.175781 114.730469 85.4375 113.152344 80.914062 C 111.652344 76.613281 113.808594 71.808594 118.035156 70.054688 C 122.363281 68.257812 127.3125 70.046875 129.316406 74.15625 C 130.394531 76.359375 130.460938 78.652344 129.890625 81.015625 C 129.789062 81.445312 129.847656 82.117188 130.121094 82.394531 C 135.808594 88.207031 141.535156 93.976562 147.257812 99.753906 C 147.425781 99.921875 147.621094 100.0625 147.917969 100.304688 C 148.242188 99.90625 148.496094 99.496094 148.835938 99.1875 C 150.566406 97.625 152.257812 96.015625 154.085938 94.578125 C 154.738281 94.066406 155.046875 93.65625 155.046875 92.839844 C 155.019531 87.0625 155.015625 81.277344 155.058594 75.496094 C 155.066406 74.53125 154.796875 74.015625 153.894531 73.554688 C 150.828125 71.988281 149.179688 68.410156 149.902344 65.199219 C 150.644531 61.914062 153.621094 59.359375 156.960938 59.140625 C 160.460938 58.90625 163.636719 60.972656 164.824219 64.253906 C 166.210938 68.082031 164.421875 72.191406 160.632812 73.792969 C 160.015625 74.054688 159.636719 74.285156 159.640625 75.0625 C 159.671875 80.597656 159.652344 86.140625 159.65625 91.679688 C 159.65625 91.835938 159.691406 91.996094 159.730469 92.308594 C 168.195312 86.511719 176.433594 87.332031 184.300781 92.945312 C 184.859375 92.046875 185.273438 91.097656 185.949219 90.398438 C 186.320312 90.015625 187.140625 89.917969 187.75 89.9375 C 189.246094 89.984375 189.910156 90.867188 190.242188 93.171875 C 198.835938 86.871094 207.484375 86.777344 216.328125 92.992188 C 216.359375 92.40625 216.398438 91.949219 216.398438 91.492188 C 216.417969 86.195312 216.40625 80.898438 216.46875 75.601562 C 216.480469 74.582031 216.191406 74.035156 215.25 73.546875 C 212.277344 71.996094 210.71875 68.652344 211.335938 65.492188 C 211.988281 62.171875 214.613281 59.648438 217.898438 59.199219 C 221.210938 58.746094 224.40625 60.488281 225.863281 63.546875 C 227.265625 66.503906 226.632812 70.164062 224.238281 72.359375 C 223.535156 73.003906 222.601562 73.386719 221.835938 73.96875 C 221.511719 74.214844 221.15625 74.679688 221.15625 75.042969 C 221.117188 81.308594 221.125 87.578125 221.148438 93.84375 C 221.152344 94.199219 221.300781 94.734375 221.554688 94.875 C 223.964844 96.242188 225.730469 98.273438 227.417969 100.488281 C 227.738281 100.230469 227.996094 100.046875 228.21875 99.828125 C 233.765625 94.332031 239.289062 88.816406 244.867188 83.351562 C 245.878906 82.359375 246.238281 81.476562 245.886719 79.988281 C 244.847656 75.570312 247.445312 71.125 251.628906 69.757812 C 256.082031 68.304688 260.652344 70.296875 262.566406 74.535156 C 264.375 78.539062 262.910156 83.457031 259.132812 85.671875 C 256.390625 87.277344 253.476562 87.324219 250.640625 85.945312 C 249.660156 85.46875 249.210938 85.691406 248.511719 86.390625 C 242.390625 92.507812 236.21875 98.578125 230.082031 104.683594 C 229.816406 104.945312 229.605469 105.429688 229.636719 105.792969 C 229.722656 106.914062 229.890625 108.042969 230.140625 109.140625 C 230.207031 109.429688 230.679688 109.832031 230.972656 109.835938 C 238.585938 109.890625 246.195312 109.910156 253.808594 109.878906 C 254.1875 109.875 254.730469 109.453125 254.921875 109.082031 C 256.59375 105.835938 260.4375 104.089844 264.070312 104.988281 C 267.699219 105.886719 270.148438 109.082031 270.066406 112.824219 C 269.988281 116.59375 267.449219 119.605469 263.71875 120.351562 C 260.015625 121.09375 256.195312 119.09375 254.699219 115.570312 C 254.429688 114.933594 254.085938 114.714844 253.441406 114.714844 C 245.871094 114.71875 238.296875 114.710938 230.722656 114.726562 C 230.417969 114.726562 229.925781 114.902344 229.839844 115.121094 C 229.292969 116.457031 228.839844 117.828125 228.386719 119.101562 C 233.851562 121.59375 238.417969 125.097656 241.679688 130.117188 C 244.921875 135.101562 246.402344 140.613281 246.117188 146.742188 C 246.699219 146.742188 247.167969 146.742188 247.636719 146.742188 C 254.523438 146.734375 261.40625 146.699219 268.289062 146.75 C 269.398438 146.757812 269.894531 146.410156 270.34375 145.402344 C 272.3125 140.96875 277.460938 139.03125 281.988281 140.917969 C 286.207031 142.675781 288.382812 147.628906 286.714844 151.925781 C 285.394531 155.339844 282.757812 157.242188 279.160156 157.554688 C 275.296875 157.890625 272.289062 156.265625 270.429688 152.835938 C 269.90625 151.875 269.359375 151.539062 268.289062 151.546875 C 261.039062 151.59375 253.792969 151.582031 246.542969 151.574219 C 245.855469 151.574219 245.34375 151.589844 245.09375 152.449219 C 243.957031 156.367188 241.878906 159.757812 239.0625 162.695312 C 238.503906 163.277344 238.363281 163.839844 238.410156 164.636719 C 238.511719 166.320312 238.449219 168.019531 238.433594 169.710938 C 238.433594 170.179688 238.367188 170.65625 238.332031 171.117188 Z M 198.4375 132.953125 C 198.027344 132.695312 197.375 132.417969 196.898438 131.957031 C 195.664062 130.761719 194.351562 129.597656 193.363281 128.210938 C 192.550781 127.070312 192.800781 125.566406 193.695312 125.015625 C 195.449219 123.929688 196.113281 122.214844 196.542969 120.398438 C 198.492188 112.175781 195.84375 105.207031 190.539062 99.003906 C 190.429688 98.875 190.222656 98.835938 189.933594 98.691406 C 189.910156 99.226562 189.875 99.621094 189.875 100.007812 C 189.863281 103.527344 189.859375 107.042969 189.855469 110.5625 C 189.816406 135.226562 189.769531 159.886719 189.75 184.550781 C 189.75 185.421875 189.800781 186.390625 190.175781 187.140625 C 192.492188 191.789062 196.378906 194.585938 201.257812 196.101562 C 201.53125 196.1875 202.097656 195.992188 202.222656 195.757812 C 202.753906 194.773438 203.171875 193.726562 203.65625 192.644531 C 203.316406 192.5 203.066406 192.382812 202.804688 192.289062 C 197.167969 190.242188 192.980469 184.238281 193 178.21875 C 193.003906 176.648438 193.90625 175.542969 195.28125 175.421875 C 196.722656 175.296875 197.746094 176.148438 198.03125 177.710938 C 198.210938 178.703125 198.332031 179.710938 198.582031 180.691406 C 199.699219 185.125 203.617188 188.324219 207.730469 188.160156 C 209.957031 188.070312 211.730469 187.136719 212.980469 185.273438 C 211.679688 184.375 210.421875 183.636719 209.304688 182.71875 C 203.957031 178.3125 202.363281 170.875 205.394531 164.703125 C 208.253906 158.871094 214.867188 155.785156 221.535156 157.226562 C 222.261719 157.386719 222.5625 157.125 222.882812 156.597656 C 224.398438 154.09375 223.933594 150.265625 221.839844 148.148438 C 219.171875 145.457031 214.179688 146.527344 213.011719 150.046875 C 212.542969 151.457031 210.898438 152.523438 209.488281 152.195312 C 208.753906 152.023438 208.066406 151.617188 207.386719 151.269531 C 204.992188 150.03125 202.453125 149.652344 199.605469 149.820312 C 199.890625 150.226562 200.0625 150.480469 200.246094 150.726562 C 202.90625 154.304688 203.929688 158.246094 202.773438 162.613281 C 202.203125 164.761719 201.5 166.871094 200.820312 168.988281 C 200.511719 169.945312 200.191406 170.914062 199.742188 171.8125 C 199.089844 173.128906 197.269531 173.511719 195.824219 172.726562 C 194.550781 172.03125 194.402344 171.078125 195.035156 169.519531 C 195.992188 167.171875 196.914062 164.792969 197.660156 162.367188 C 198.609375 159.277344 197.996094 156.300781 196.179688 153.703125 C 195.207031 152.308594 193.765625 151.242188 192.566406 149.996094 C 192.191406 149.609375 191.671875 149.148438 191.636719 148.6875 C 191.347656 145.082031 191.578125 141.507812 193.746094 138.449219 C 195.109375 136.53125 196.800781 134.847656 198.4375 132.953125 Z M 176.007812 133.476562 C 176.265625 133.660156 176.460938 133.800781 176.652344 133.941406 C 180.730469 136.933594 182.871094 140.898438 183.066406 146 C 183.15625 148.332031 182.570312 149.917969 180.574219 151.394531 C 177.285156 153.832031 175.820312 157.382812 176.734375 161.453125 C 177.335938 164.148438 178.480469 166.726562 179.492188 169.316406 C 179.933594 170.445312 180.085938 171.402344 179.140625 172.304688 C 178.292969 173.109375 176.875 173.414062 175.886719 172.75 C 175.230469 172.308594 174.582031 171.585938 174.335938 170.851562 C 173.371094 167.984375 172.449219 165.085938 171.734375 162.148438 C 170.929688 158.851562 171.464844 155.625 172.949219 152.59375 C 173.429688 151.613281 174.175781 150.765625 174.914062 149.691406 C 174.300781 149.691406 173.828125 149.683594 173.359375 149.691406 C 170.742188 149.722656 168.386719 150.628906 166.066406 151.753906 C 164.117188 152.703125 162.351562 151.828125 161.6875 149.777344 C 161.527344 149.289062 161.320312 148.765625 160.980469 148.398438 C 158.589844 145.800781 154.164062 146.136719 152.191406 149.0625 C 151.035156 150.785156 150.640625 152.726562 151.054688 154.738281 C 151.230469 155.605469 151.695312 156.496094 152.28125 157.160156 C 152.492188 157.402344 153.417969 157.011719 154.019531 156.921875 C 159.554688 156.113281 164.164062 157.941406 167.597656 162.222656 C 173.367188 169.421875 170.886719 180.261719 162.628906 184.6875 C 162.265625 184.882812 161.902344 185.085938 161.515625 185.300781 C 164.808594 189.289062 170.976562 188.847656 174.109375 184.542969 C 175.5625 182.550781 176.171875 180.289062 176.328125 177.851562 C 176.433594 176.21875 177.503906 175.332031 179.058594 175.410156 C 180.476562 175.484375 181.3125 176.398438 181.335938 178.015625 C 181.410156 183.519531 177.625 190.765625 171.308594 192.285156 C 171.125 192.328125 170.960938 192.449219 170.59375 192.632812 C 171.121094 193.59375 171.625 194.492188 172.105469 195.402344 C 172.488281 196.136719 173.011719 196.289062 173.808594 196.042969 C 176.441406 195.222656 178.800781 193.941406 180.796875 192.035156 C 183.414062 189.539062 184.847656 186.6875 184.832031 182.851562 C 184.714844 155.359375 184.769531 127.867188 184.769531 100.378906 C 184.769531 99.878906 184.769531 99.382812 184.769531 98.617188 C 184.285156 99.007812 184.046875 99.152344 183.871094 99.351562 C 179.390625 104.507812 177.160156 110.464844 177.726562 117.308594 C 177.9375 119.824219 178.300781 122.390625 180.292969 124.320312 C 181.847656 125.824219 181.976562 126.867188 180.824219 128.714844 C 180.398438 129.398438 179.90625 130.0625 179.328125 130.613281 C 178.304688 131.585938 177.195312 132.460938 176.007812 133.476562 Z M 175.738281 127.585938 C 175.238281 126.507812 174.664062 125.523438 174.304688 124.46875 C 170.949219 114.605469 172.652344 105.605469 179.082031 97.476562 C 179.757812 96.625 179.78125 96.207031 178.878906 95.59375 C 176.757812 94.140625 174.457031 93.246094 171.886719 93.09375 C 166.925781 92.792969 162.863281 95.609375 161.699219 100.132812 C 160.539062 104.640625 162.804688 109.476562 167.015625 111.484375 C 168.554688 112.21875 169.277344 113.632812 168.824219 115.019531 C 168.394531 116.347656 167.0625 116.96875 165.347656 116.644531 C 165.105469 116.601562 164.871094 116.554688 164.628906 116.511719 C 161.96875 116.050781 158.117188 117.839844 156.78125 120.175781 C 156.347656 120.933594 156.082031 121.683594 156.605469 122.5625 C 159.027344 126.609375 158.121094 132.175781 154.855469 135.859375 C 152.320312 138.714844 149.441406 139.160156 146.179688 137.175781 C 145.636719 136.847656 145.117188 136.488281 144.539062 136.105469 C 143.453125 137.460938 142.871094 138.890625 142.964844 140.535156 C 143.058594 142.246094 144.050781 143.363281 145.546875 144.058594 C 146.945312 144.710938 148.15625 144.738281 149.5625 143.683594 C 154.421875 140.035156 161.214844 140.957031 165.03125 145.648438 C 165.539062 146.273438 165.898438 146.484375 166.726562 146.148438 C 169.652344 144.960938 172.707031 144.429688 175.875 144.773438 C 176.574219 144.851562 177.265625 145.007812 178.125 145.15625 C 177.960938 144.460938 177.878906 143.945312 177.722656 143.457031 C 176.082031 138.402344 171.917969 135.359375 166.503906 135.246094 C 164.835938 135.210938 164.003906 134.582031 163.820312 133.222656 C 163.625 131.816406 164.410156 130.609375 165.898438 130.257812 C 166.753906 130.054688 167.660156 130.042969 168.550781 129.992188 C 171.140625 129.835938 173.539062 129.136719 175.738281 127.585938 Z M 196.523438 145.03125 C 201.019531 143.96875 205.089844 144.660156 208.996094 146.492188 C 210.847656 144.015625 213.238281 142.484375 216.089844 141.710938 C 219.753906 140.714844 222.953125 141.925781 225.902344 144.007812 C 226.601562 144.503906 227.234375 144.832031 228.128906 144.597656 C 229.890625 144.132812 231.128906 143.144531 231.488281 141.328125 C 231.894531 139.246094 231.183594 137.476562 229.738281 135.863281 C 229.347656 136.179688 229.042969 136.429688 228.730469 136.671875 C 226.027344 138.746094 223.058594 138.710938 220.511719 136.570312 C 216.8125 133.457031 215.453125 127.34375 217.71875 123.074219 C 218.449219 121.691406 218.226562 120.714844 217.359375 119.691406 C 216.839844 119.078125 216.269531 118.484375 215.621094 118.019531 C 213.582031 116.550781 211.335938 116.101562 208.832031 116.632812 C 206.769531 117.070312 205.144531 115.257812 205.671875 113.261719 C 205.980469 112.101562 206.992188 111.699219 207.9375 111.238281 C 211.289062 109.59375 213.652344 105.398438 213.28125 101.765625 C 212.773438 96.746094 209.257812 93.378906 204.109375 93.148438 C 200.632812 92.992188 197.582031 94.199219 194.820312 96.34375 C 195.019531 96.621094 195.105469 96.753906 195.203125 96.878906 C 202.347656 106.121094 204.726562 116 199.191406 126.917969 C 198.890625 127.511719 199.023438 127.835938 199.566406 128.050781 C 201.027344 128.628906 202.460938 129.332031 203.972656 129.703125 C 205.246094 130.015625 206.621094 129.917969 207.949219 130.023438 C 209.648438 130.160156 211.148438 131.605469 211.085938 133.015625 C 211.019531 134.488281 209.785156 135.28125 207.804688 135.269531 C 203.859375 135.25 200.816406 137.03125 198.523438 140.148438 C 197.5 141.539062 196.789062 143.101562 196.523438 145.03125 Z M 233.683594 168.417969 C 233.152344 168.722656 232.808594 168.90625 232.480469 169.113281 C 229.011719 171.347656 225.546875 173.589844 222.066406 175.804688 C 221.527344 176.152344 220.945312 176.472656 220.335938 176.65625 C 218.96875 177.0625 217.296875 176.214844 216.820312 174.957031 C 216.363281 173.761719 216.964844 172.582031 218.308594 171.765625 C 223.042969 168.890625 227.742188 165.960938 232.488281 163.097656 C 233.214844 162.660156 233.269531 162.167969 233.058594 161.492188 C 232.28125 158.945312 231.058594 156.640625 229.28125 154.644531 C 229.117188 154.460938 228.863281 154.347656 228.5 154.101562 C 228.5 156.582031 227.558594 158.566406 226.332031 160.441406 C 224.792969 162.792969 223.65625 163.175781 221.011719 162.253906 C 217.847656 161.152344 213.636719 162.214844 211.402344 164.675781 C 207.648438 168.808594 208.121094 175.121094 212.464844 178.855469 C 217.683594 183.34375 225.960938 182.453125 230.609375 176.894531 C 232.59375 174.519531 233.707031 171.820312 233.683594 168.417969 Z M 145.984375 154.085938 C 143.753906 156.304688 142.355469 158.933594 141.613281 161.914062 C 141.554688 162.140625 141.84375 162.5625 142.085938 162.742188 C 143.15625 163.542969 144.234375 164.335938 145.363281 165.039062 C 149 167.304688 152.6875 169.488281 156.289062 171.800781 C 156.996094 172.253906 157.644531 173.082031 157.90625 173.871094 C 158.234375 174.851562 157.65625 175.746094 156.761719 176.328125 C 155.792969 176.960938 154.8125 177.039062 153.804688 176.402344 C 150.078125 174.046875 146.351562 171.691406 142.621094 169.351562 C 142.167969 169.0625 141.671875 168.839844 141.027344 168.5 C 141.058594 169.050781 141.054688 169.367188 141.097656 169.675781 C 141.882812 175.316406 146.269531 180.144531 151.847656 181.347656 C 156.640625 182.375 160.785156 181.183594 163.863281 177.238281 C 166.476562 173.890625 166.4375 169.097656 163.960938 165.578125 C 161.558594 162.160156 157.136719 160.910156 153.535156 162.351562 C 151.320312 163.238281 150.148438 162.738281 148.71875 160.804688 C 147.253906 158.820312 146.269531 156.636719 145.984375 154.085938 Z M 141.476562 128.132812 C 132.835938 132.585938 130.449219 151.753906 137.886719 157.363281 C 139.398438 154.179688 141.183594 151.207031 144.054688 149.050781 C 140.367188 147.261719 138.179688 144.535156 137.988281 140.527344 C 137.828125 137.238281 139.125 134.472656 141.542969 132.226562 C 141.871094 131.921875 142.339844 131.449219 142.292969 131.121094 C 142.136719 130.113281 141.765625 129.132812 141.476562 128.132812 Z M 232.128906 131.632812 C 235.328125 133.828125 236.921875 136.886719 236.671875 140.707031 C 236.414062 144.570312 234.335938 147.382812 230.824219 149.160156 C 233.652344 151.347656 235.277344 154.304688 236.773438 157.382812 C 244.414062 149.058594 241.648438 134.273438 233.019531 127.980469 C 232.726562 129.171875 232.4375 130.367188 232.128906 131.632812 Z M 222.703125 118.480469 C 225.414062 115.035156 226.054688 111.125 224.835938 106.914062 C 223.707031 103.035156 221.335938 100.132812 217.398438 98.125 C 219.023438 103.464844 217.886719 107.984375 214.859375 111.894531 C 216.449219 112.800781 218.0625 113.453125 219.324219 114.519531 C 220.613281 115.605469 221.558594 117.101562 222.703125 118.480469 Z M 159.96875 112.1875 C 156.582031 108 155.796875 103.433594 157.121094 98.359375 C 149.6875 102.375 147.148438 112.789062 152.128906 118.644531 C 153.84375 115.503906 156.121094 113.035156 159.96875 112.1875 Z M 207.089844 196.652344 C 213.894531 196.828125 221.570312 191.808594 223.59375 186.445312 C 221.929688 186.539062 220.292969 186.605469 218.660156 186.746094 C 218.414062 186.765625 218.148438 187.101562 217.976562 187.351562 C 215.910156 190.375 213.035156 192.160156 209.5 192.972656 C 209.210938 193.039062 208.832031 193.175781 208.710938 193.398438 C 208.136719 194.445312 207.636719 195.535156 207.089844 196.652344 Z M 151.609375 186.535156 C 153.171875 191.457031 162.578125 197.472656 167.164062 196.539062 C 166.703125 195.46875 166.277344 194.382812 165.761719 193.347656 C 165.628906 193.082031 165.234375 192.847656 164.921875 192.785156 C 161.425781 192.058594 158.710938 190.195312 156.667969 187.292969 C 156.484375 187.035156 156.109375 186.804688 155.800781 186.773438 C 154.441406 186.652344 153.078125 186.613281 151.609375 186.535156 Z M 258.71875 78.117188 C 258.726562 75.753906 256.851562 73.890625 254.472656 73.902344 C 252.140625 73.910156 250.273438 75.730469 250.25 78.019531 C 250.226562 80.292969 252.207031 82.320312 254.46875 82.328125 C 256.832031 82.34375 258.714844 80.480469 258.71875 78.117188 Z M 121.644531 200.945312 C 119.089844 200.925781 117.261719 202.734375 117.277344 205.269531 C 117.289062 207.476562 119.171875 209.285156 121.453125 209.289062 C 123.820312 209.289062 125.742188 207.503906 125.777344 205.269531 C 125.808594 202.898438 123.960938 200.964844 121.644531 200.945312 Z M 254.210938 200.980469 C 251.820312 200.996094 250.015625 202.75 250.007812 205.066406 C 250.003906 207.546875 251.816406 209.324219 254.332031 209.300781 C 256.628906 209.277344 258.484375 207.417969 258.507812 205.121094 C 258.527344 202.78125 256.644531 200.964844 254.210938 200.980469 Z M 278.414062 153.089844 C 280.78125 153.117188 282.613281 151.367188 282.648438 149.050781 C 282.679688 146.695312 280.808594 144.800781 278.453125 144.800781 C 276.128906 144.804688 274.21875 146.621094 274.179688 148.871094 C 274.140625 151.179688 276.03125 153.066406 278.414062 153.089844 Z M 121.496094 82.273438 C 123.796875 82.296875 125.640625 80.449219 125.644531 78.117188 C 125.644531 75.863281 123.847656 74.019531 121.597656 73.964844 C 119.21875 73.90625 117.328125 75.742188 117.308594 78.121094 C 117.296875 80.378906 119.179688 82.246094 121.496094 82.273438 Z M 96.691406 153.023438 C 99.179688 153.03125 100.960938 151.292969 100.941406 148.875 C 100.921875 146.589844 99.171875 144.875 96.816406 144.839844 C 94.46875 144.800781 92.625 146.605469 92.625 148.9375 C 92.628906 151.253906 94.378906 153.019531 96.691406 153.023438 Z M 148.46875 123.292969 C 148.226562 123.320312 147.601562 123.304688 147.03125 123.476562 C 146.738281 123.5625 146.355469 123.972656 146.332031 124.261719 C 146.105469 127.265625 146.714844 130.046875 148.722656 132.40625 C 149.621094 133.460938 150.261719 133.480469 151.226562 132.445312 C 152.730469 130.835938 152.996094 128.859375 152.75 126.789062 C 152.453125 124.289062 151.328125 123.320312 148.46875 123.292969 Z M 225.75 123.398438 C 224.355469 123.320312 222.960938 123.617188 222.148438 125.191406 C 221.042969 127.335938 221.5625 130.71875 223.28125 132.410156 C 224.246094 133.355469 224.6875 133.386719 225.589844 132.402344 C 227.386719 130.445312 228.34375 128.167969 228.113281 125.457031 C 227.945312 123.425781 227.957031 123.425781 225.75 123.398438 Z M 113.472656 115.976562 C 115.414062 115.980469 116.921875 114.535156 116.929688 112.667969 C 116.933594 110.902344 115.378906 109.40625 113.542969 109.40625 C 111.648438 109.40625 110.136719 110.921875 110.164062 112.796875 C 110.1875 114.5625 111.660156 115.972656 113.472656 115.976562 Z M 262.054688 115.925781 C 264.003906 115.949219 265.542969 114.542969 265.585938 112.6875 C 265.628906 110.992188 264.007812 109.421875 262.199219 109.40625 C 260.335938 109.386719 258.777344 110.839844 258.78125 112.59375 C 258.777344 114.449219 260.210938 115.90625 262.054688 115.925781 Z M 119.320312 174.097656 C 119.300781 172.339844 117.824219 171.011719 115.929688 171.050781 C 114.097656 171.089844 112.796875 172.394531 112.796875 174.207031 C 112.796875 176.109375 114.210938 177.527344 116.082031 177.5 C 117.878906 177.476562 119.339844 175.9375 119.320312 174.097656 Z M 264.761719 174.367188 C 264.773438 172.460938 263.441406 171.128906 261.488281 171.09375 C 259.640625 171.058594 258.257812 172.398438 258.230469 174.242188 C 258.203125 176.132812 259.691406 177.628906 261.585938 177.613281 C 263.410156 177.597656 264.753906 176.226562 264.761719 174.367188 Z M 160.738281 219.773438 C 160.722656 218.132812 159.269531 216.648438 157.667969 216.632812 C 155.992188 216.621094 154.523438 218.148438 154.566406 219.855469 C 154.605469 221.515625 156.058594 222.898438 157.734375 222.871094 C 159.523438 222.84375 160.753906 221.574219 160.738281 219.773438 Z M 221.894531 219.800781 C 221.863281 218.109375 220.363281 216.605469 218.726562 216.628906 C 217.121094 216.648438 215.765625 218.132812 215.78125 219.847656 C 215.796875 221.625 217.152344 222.886719 219.011719 222.855469 C 220.71875 222.832031 221.925781 221.554688 221.894531 219.800781 Z M 160.582031 66.820312 C 160.585938 65.207031 159.195312 63.847656 157.542969 63.84375 C 155.765625 63.839844 154.421875 65.136719 154.421875 66.859375 C 154.421875 68.445312 155.835938 69.820312 157.476562 69.839844 C 159.238281 69.859375 160.582031 68.550781 160.582031 66.820312 Z M 221.945312 66.894531 C 221.960938 65.136719 220.757812 63.914062 219.003906 63.910156 C 217.25 63.90625 215.972656 65.132812 215.96875 66.832031 C 215.964844 68.496094 217.417969 70.003906 219.003906 69.984375 C 220.613281 69.960938 221.933594 68.574219 221.945312 66.894531 Z M 221.945312 66.894531 " fill-opacity="1" fill-rule="nonzero"/><g clip-path="url(#612b138dc4)"><path fill="#000000" d="M 187.875 54.328125 C 191.726562 54.324219 195.199219 57.144531 196.078125 60.992188 C 196.992188 65 195.105469 68.980469 191.304688 70.714844 C 190.261719 71.1875 190.007812 71.761719 190.027344 72.804688 C 190.082031 75.914062 190.042969 79.023438 190.035156 82.132812 C 190.027344 83.496094 188.828125 84.832031 187.644531 84.828125 C 186.328125 84.824219 185.300781 83.804688 185.277344 82.277344 C 185.226562 78.96875 185.238281 75.65625 185.277344 72.34375 C 185.289062 71.511719 185.0625 71.070312 184.246094 70.710938 C 180.445312 69.03125 178.480469 64.996094 179.378906 60.914062 C 180.238281 57.027344 183.707031 54.335938 187.875 54.328125 Z M 191.617188 62.976562 C 191.632812 60.785156 189.871094 58.960938 187.75 58.964844 C 185.503906 58.972656 183.742188 60.742188 183.753906 62.984375 C 183.761719 65.097656 185.585938 66.972656 187.664062 67.003906 C 189.886719 67.035156 191.601562 65.289062 191.617188 62.976562 Z M 191.617188 62.976562 " fill-opacity="1" fill-rule="nonzero"/></g><path fill="#000000" d="M 185.261719 210.367188 C 185.261719 208.871094 185.246094 207.378906 185.269531 205.886719 C 185.296875 204.3125 186.175781 203.414062 187.636719 203.417969 C 189.007812 203.421875 190.023438 204.429688 190.035156 205.914062 C 190.066406 208.820312 190.070312 211.730469 190.027344 214.632812 C 190.011719 215.53125 190.203125 216.011719 191.136719 216.421875 C 196.707031 218.878906 198.191406 226.457031 193.914062 230.484375 C 191.246094 232.996094 188.046875 233.53125 184.679688 232.277344 C 181.300781 231.019531 179.421875 228.429688 179.25 224.8125 C 179.070312 221.082031 180.722656 218.234375 184.007812 216.472656 C 184.976562 215.949219 185.359375 215.433594 185.285156 214.359375 C 185.1875 213.039062 185.257812 211.699219 185.261719 210.367188 Z M 191.730469 224.226562 C 191.722656 222.113281 189.90625 220.355469 187.734375 220.355469 C 185.445312 220.355469 183.734375 222.082031 183.769531 224.34375 C 183.808594 226.605469 185.675781 228.464844 187.871094 228.433594 C 189.945312 228.398438 191.738281 226.449219 191.730469 224.226562 Z M 191.730469 224.226562 " fill-opacity="1" fill-rule="nonzero"/><g fill="#000000" fill-opacity="1"><g transform="translate(109.997664, 260.087414)"><g><path d="M 15.703125 0 L 11.796875 0 L 10.796875 -3.125 L 4.78125 -3.125 L 3.78125 0 L -0.109375 0 L 5.234375 -15.59375 L 10.359375 -15.59375 Z M 7.578125 -11.796875 L 5.796875 -6.234375 L 9.796875 -6.234375 L 8.015625 -11.796875 Z M 7.578125 -11.796875 "/></g></g></g><g fill="#000000" fill-opacity="1"><g transform="translate(125.575418, 260.087414)"><g><path d="M 5.125 0 L 1.5625 0 L 1.5625 -15.59375 L 7.015625 -15.59375 L 10.125 -5.90625 L 10.578125 -5.90625 L 13.6875 -15.59375 L 19.15625 -15.59375 L 19.15625 0 L 15.59375 0 L 15.59375 -9.578125 L 15.140625 -9.578125 L 12.03125 0 L 8.6875 0 L 5.5625 -9.578125 L 5.125 -9.578125 Z M 5.125 0 "/></g></g></g><g fill="#000000" fill-opacity="1"><g transform="translate(146.271576, 260.087414)"><g><path d="M 5.125 0 L 1.5625 0 L 1.5625 -15.59375 L 5.125 -15.59375 Z M 5.125 0 "/></g></g></g><g fill="#000000" fill-opacity="1"><g transform="translate(152.94775, 260.087414)"><g><path d="M 5.125 0 L 1.5625 0 L 1.5625 -15.59375 L 5.90625 -15.59375 L 10.796875 -6.234375 L 11.25 -6.234375 L 11.25 -15.59375 L 14.8125 -15.59375 L 14.8125 0 L 10.46875 0 L 5.5625 -9.359375 L 5.125 -9.359375 Z M 5.125 0 "/></g></g></g><g fill="#000000" fill-opacity="1"><g transform="translate(169.304389, 260.087414)"><g><path d="M 9.359375 5.34375 L -0.453125 5.34375 L -0.453125 2.234375 L 9.359375 2.234375 Z M 9.359375 5.34375 "/></g></g></g><g fill="#000000" fill-opacity="1"><g transform="translate(178.205957, 260.087414)"><g><path d="M 5.125 0 L 1.5625 0 L 1.5625 -15.59375 L 5.125 -15.59375 L 5.125 -8.90625 L 9.6875 -15.59375 L 14.03125 -15.59375 L 8.6875 -7.90625 L 14.46875 0 L 10.125 0 L 5.125 -7.015625 Z M 5.125 0 "/></g></g></g><g fill="#000000" fill-opacity="1"><g transform="translate(192.22593, 260.087414)"><g><path d="M 5.125 0 L 1.5625 0 L 1.5625 -15.59375 L 5.125 -15.59375 L 5.125 -9.6875 L 11.140625 -9.6875 L 11.140625 -15.59375 L 14.703125 -15.59375 L 14.703125 0 L 11.140625 0 L 11.140625 -6.015625 L 5.125 -6.015625 Z M 5.125 0 "/></g></g></g><g fill="#000000" fill-opacity="1"><g transform="translate(208.471298, 260.087414)"><g><path d="M 15.703125 0 L 11.796875 0 L 10.796875 -3.125 L 4.78125 -3.125 L 3.78125 0 L -0.109375 0 L 5.234375 -15.59375 L 10.359375 -15.59375 Z M 7.578125 -11.796875 L 5.796875 -6.234375 L 9.796875 -6.234375 L 8.015625 -11.796875 Z M 7.578125 -11.796875 "/></g></g></g><g fill="#000000" fill-opacity="1"><g transform="translate(224.049052, 260.087414)"><g><path d="M 5.125 0 L 1.5625 0 L 1.5625 -15.59375 L 5.125 -15.59375 Z M 5.125 0 "/></g></g></g><g fill="#000000" fill-opacity="1"><g transform="translate(230.725226, 260.087414)"><g><path d="M 14.46875 0 L 10.046875 0 L 5.671875 -5.015625 L 5.125 -5.015625 L 5.125 0 L 1.5625 0 L 1.5625 -15.59375 L 8.921875 -15.59375 C 9.921875 -15.59375 10.804688 -15.363281 11.578125 -14.90625 C 12.347656 -14.457031 12.945312 -13.828125 13.375 -13.015625 C 13.8125 -12.203125 14.03125 -11.265625 14.03125 -10.203125 C 14.03125 -9.273438 13.835938 -8.429688 13.453125 -7.671875 C 13.078125 -6.910156 12.570312 -6.300781 11.9375 -5.84375 C 11.300781 -5.394531 10.601562 -5.144531 9.84375 -5.09375 Z M 5.125 -8.234375 L 8.734375 -8.234375 C 9.222656 -8.234375 9.632812 -8.421875 9.96875 -8.796875 C 10.300781 -9.179688 10.46875 -9.664062 10.46875 -10.25 C 10.46875 -10.820312 10.300781 -11.296875 9.96875 -11.671875 C 9.632812 -12.054688 9.222656 -12.25 8.734375 -12.25 L 5.125 -12.25 Z M 5.125 -8.234375 "/></g></g></g><g fill="#000000" fill-opacity="1"><g transform="translate(245.857896, 260.087414)"><g><path d="M 5.125 0 L 1.5625 0 L 1.5625 -15.59375 L 5.125 -15.59375 Z M 5.125 0 "/></g></g></g><g fill="#000000" fill-opacity="1"><g transform="translate(252.53407, 260.087414)"><g><path d="M 12.140625 0 L 1.5625 0 L 1.5625 -15.59375 L 5.125 -15.59375 L 5.125 -3.453125 L 12.140625 -3.453125 Z M 12.140625 0 "/></g></g></g></svg>